<svg width="460" height="460" viewBox="110 110 460 460" role="img" xmlns="http://www.w3.org/2000/svg"><title>particle-imaging-models</title><desc>A particle interaction imaged as inactive and active pixels with an off-center vertex, on a transparent background.</desc><rect x="168.3" y="117.2" width="36.8" height="36.8" rx="11.0" fill="#eeeeee"/><rect x="219.4" y="117.2" width="36.8" height="36.8" rx="11.0" fill="#eeeeee"/><rect x="270.5" y="117.2" width="36.8" height="36.8" rx="11.0" fill="#eeeeee"/><rect x="321.6" y="117.2" width="36.8" height="36.8" rx="11.0" fill="#eeeeee"/><rect x="372.7" y="117.2" width="36.8" height="36.8" rx="11.0" fill="#eeeeee"/><rect x="423.8" y="117.2" width="36.8" height="36.8" rx="11.0" fill="#eeeeee"/><rect x="474.9" y="117.2" width="36.8" height="36.8" rx="11.0" fill="#eeeeee"/><rect x="526.0" y="117.2" width="36.8" height="36.8" rx="11.0" fill="#eeeeee"/><rect x="219.4" y="168.3" width="36.8" height="36.8" rx="11.0" fill="#eeeeee"/><rect x="270.5" y="168.3" width="36.8" height="36.8" rx="11.0" fill="#eeeeee"/><rect x="321.6" y="168.3" width="36.8" height="36.8" rx="11.0" fill="#eeeeee"/><rect x="372.7" y="168.3" width="36.8" height="36.8" rx="11.0" fill="#eeeeee"/><rect x="423.8" y="168.3" width="36.8" height="36.8" rx="11.0" fill="#eeeeee"/><rect x="474.9" y="168.3" width="36.8" height="36.8" rx="11.0" fill="#eeeeee"/><rect x="219.4" y="219.4" width="36.8" height="36.8" rx="11.0" fill="#eeeeee"/><rect x="270.5" y="219.4" width="36.8" height="36.8" rx="11.0" fill="#eeeeee"/><rect x="321.6" y="219.4" width="36.8" height="36.8" rx="11.0" fill="#eeeeee"/><rect x="372.7" y="219.4" width="36.8" height="36.8" rx="11.0" fill="#eeeeee"/><rect x="423.8" y="219.4" width="36.8" height="36.8" rx="11.0" fill="#eeeeee"/><rect x="526.0" y="219.4" width="36.8" height="36.8" rx="11.0" fill="#eeeeee"/><rect x="117.2" y="270.5" width="36.8" height="36.8" rx="11.0" fill="#eeeeee"/><rect x="168.3" y="270.5" width="36.8" height="36.8" rx="11.0" fill="#eeeeee"/><rect x="270.5" y="270.5" width="36.8" height="36.8" rx="11.0" fill="#eeeeee"/><rect x="321.6" y="270.5" width="36.8" height="36.8" rx="11.0" fill="#eeeeee"/><rect x="474.9" y="270.5" width="36.8" height="36.8" rx="11.0" fill="#eeeeee"/><rect x="526.0" y="270.5" width="36.8" height="36.8" rx="11.0" fill="#eeeeee"/><rect x="219.4" y="321.6" width="36.8" height="36.8" rx="11.0" fill="#eeeeee"/><rect x="270.5" y="321.6" width="36.8" height="36.8" rx="11.0" fill="#eeeeee"/><rect x="372.7" y="321.6" width="36.8" height="36.8" rx="11.0" fill="#eeeeee"/><rect x="423.8" y="321.6" width="36.8" height="36.8" rx="11.0" fill="#eeeeee"/><rect x="474.9" y="321.6" width="36.8" height="36.8" rx="11.0" fill="#eeeeee"/><rect x="526.0" y="321.6" width="36.8" height="36.8" rx="11.0" fill="#eeeeee"/><rect x="117.2" y="372.7" width="36.8" height="36.8" rx="11.0" fill="#eeeeee"/><rect x="219.4" y="372.7" width="36.8" height="36.8" rx="11.0" fill="#eeeeee"/><rect x="372.7" y="372.7" width="36.8" height="36.8" rx="11.0" fill="#eeeeee"/><rect x="423.8" y="372.7" width="36.8" height="36.8" rx="11.0" fill="#eeeeee"/><rect x="474.9" y="372.7" width="36.8" height="36.8" rx="11.0" fill="#eeeeee"/><rect x="526.0" y="372.7" width="36.8" height="36.8" rx="11.0" fill="#eeeeee"/><rect x="117.2" y="423.8" width="36.8" height="36.8" rx="11.0" fill="#eeeeee"/><rect x="168.3" y="423.8" width="36.8" height="36.8" rx="11.0" fill="#eeeeee"/><rect x="270.5" y="423.8" width="36.8" height="36.8" rx="11.0" fill="#eeeeee"/><rect x="321.6" y="423.8" width="36.8" height="36.8" rx="11.0" fill="#eeeeee"/><rect x="372.7" y="423.8" width="36.8" height="36.8" rx="11.0" fill="#eeeeee"/><rect x="423.8" y="423.8" width="36.8" height="36.8" rx="11.0" fill="#eeeeee"/><rect x="474.9" y="423.8" width="36.8" height="36.8" rx="11.0" fill="#eeeeee"/><rect x="526.0" y="423.8" width="36.8" height="36.8" rx="11.0" fill="#eeeeee"/><rect x="117.2" y="474.9" width="36.8" height="36.8" rx="11.0" fill="#eeeeee"/><rect x="168.3" y="474.9" width="36.8" height="36.8" rx="11.0" fill="#eeeeee"/><rect x="270.5" y="474.9" width="36.8" height="36.8" rx="11.0" fill="#eeeeee"/><rect x="321.6" y="474.9" width="36.8" height="36.8" rx="11.0" fill="#eeeeee"/><rect x="372.7" y="474.9" width="36.8" height="36.8" rx="11.0" fill="#eeeeee"/><rect x="423.8" y="474.9" width="36.8" height="36.8" rx="11.0" fill="#eeeeee"/><rect x="474.9" y="474.9" width="36.8" height="36.8" rx="11.0" fill="#eeeeee"/><rect x="526.0" y="474.9" width="36.8" height="36.8" rx="11.0" fill="#eeeeee"/><rect x="117.2" y="526.0" width="36.8" height="36.8" rx="11.0" fill="#eeeeee"/><rect x="168.3" y="526.0" width="36.8" height="36.8" rx="11.0" fill="#eeeeee"/><rect x="270.5" y="526.0" width="36.8" height="36.8" rx="11.0" fill="#eeeeee"/><rect x="321.6" y="526.0" width="36.8" height="36.8" rx="11.0" fill="#eeeeee"/><rect x="372.7" y="526.0" width="36.8" height="36.8" rx="11.0" fill="#eeeeee"/><rect x="423.8" y="526.0" width="36.8" height="36.8" rx="11.0" fill="#eeeeee"/><rect x="474.9" y="526.0" width="36.8" height="36.8" rx="11.0" fill="#eeeeee"/><rect x="526.0" y="526.0" width="36.8" height="36.8" rx="11.0" fill="#eeeeee"/><rect x="117.2" y="321.6" width="36.8" height="36.8" rx="11.0" fill="#bdbdbd"/><rect x="270.5" y="372.7" width="36.8" height="36.8" rx="11.0" fill="#555555"/><rect x="321.6" y="372.7" width="36.8" height="36.8" rx="11.0" fill="#555555"/><rect x="321.6" y="321.6" width="36.8" height="36.8" rx="11.0" fill="#555555"/><rect x="372.7" y="270.5" width="36.8" height="36.8" rx="11.0" fill="#555555"/><rect x="423.8" y="270.5" width="36.8" height="36.8" rx="11.0" fill="#555555"/><rect x="474.9" y="219.4" width="36.8" height="36.8" rx="11.0" fill="#555555"/><rect x="526.0" y="168.3" width="36.8" height="36.8" rx="11.0" fill="#555555"/><rect x="219.4" y="474.9" width="36.8" height="36.8" rx="11.0" fill="#555555"/><rect x="219.4" y="526.0" width="36.8" height="36.8" rx="11.0" fill="#555555"/><rect x="168.3" y="372.7" width="36.8" height="36.8" rx="11.0" fill="#555555"/><rect x="168.3" y="321.6" width="36.8" height="36.8" rx="11.0" fill="#555555"/><rect x="219.4" y="270.5" width="36.8" height="36.8" rx="11.0" fill="#555555"/><rect x="168.3" y="219.4" width="36.8" height="36.8" rx="11.0" fill="#555555"/><rect x="168.3" y="168.3" width="36.8" height="36.8" rx="11.0" fill="#555555"/><rect x="117.2" y="168.3" width="36.8" height="36.8" rx="11.0" fill="#555555"/><rect x="117.2" y="219.4" width="36.8" height="36.8" rx="11.0" fill="#555555"/><rect x="117.2" y="117.2" width="36.8" height="36.8" rx="11.0" fill="#555555"/><rect x="219.4" y="423.8" width="36.8" height="36.8" rx="11.0" fill="#111111"/></svg>